<?xml version="1.0" encoding="iso-8859-1"?>
<!-- Generator: Adobe Illustrator 19.0.0, SVG Export Plug-In . SVG Version: 6.00 Build 0)  -->
<svg version="1.1" id="Layer_1" xmlns="http://www.w3.org/2000/svg" xmlns:xlink="http://www.w3.org/1999/xlink" x="0px" y="0px"
	 viewBox="0 0 511.984 511.984" style="enable-background:new 0 0 511.984 511.984;" xml:space="preserve">
<path style="fill:#723939;" d="M490.64,277.319c0,129.591-105.059,234.665-234.648,234.665
	c-129.598,0-234.664-105.074-234.664-234.665c0-129.604,105.066-234.664,234.664-234.664
	C385.582,42.655,490.64,147.715,490.64,277.319z"/>
<path style="fill:#F5F7FA;" d="M490.64,255.992c0,129.59-105.059,234.649-234.648,234.649
	c-129.598,0-234.664-105.059-234.664-234.649c0-129.605,105.066-234.665,234.664-234.665
	C385.582,21.327,490.64,126.387,490.64,255.992z"/>
<path id="SVGCleanerId_0" style="fill:#7F4545;" d="M490.64,234.649c0,129.605-105.059,234.665-234.648,234.665
	c-129.598,0-234.656-105.06-234.656-234.665C21.336,105.059,126.394,0,255.992,0C385.582,0,490.64,105.059,490.64,234.649z"/>
<g>
	<path id="SVGCleanerId_0_1_" style="fill:#7F4545;" d="M490.64,234.649c0,129.605-105.059,234.665-234.648,234.665
		c-129.598,0-234.656-105.06-234.656-234.665C21.336,105.059,126.394,0,255.992,0C385.582,0,490.64,105.059,490.64,234.649z"/>
</g>
<g>
	<path style="fill:#602B2B;" d="M255.992,0c-3.57,0-7.133,0.078-10.663,0.234v31.765c0,5.875,4.772,10.656,10.663,10.656
		s10.672-4.781,10.672-10.656V0.234C263.125,0.078,259.57,0,255.992,0z"/>
	<path style="fill:#602B2B;" d="M255.992,426.643c-5.891,0-10.663,4.781-10.663,10.672v31.749c3.53,0.156,7.093,0.25,10.663,0.25
		c3.578,0,7.133-0.094,10.672-0.25v-31.749C266.664,431.425,261.883,426.643,255.992,426.643z"/>
	<path style="fill:#602B2B;" d="M183.479,11.484c-3.398,1.094-6.758,2.281-10.07,3.516l9.812,30.202
		c1.827,5.609,7.843,8.671,13.444,6.859c5.602-1.828,8.664-7.843,6.852-13.453l-9.82-30.202
		C190.283,9.359,186.877,10.375,183.479,11.484z"/>
	<path style="fill:#602B2B;" d="M315.334,417.253c-5.609,1.812-8.688,7.828-6.859,13.438l9.812,30.202
		c3.422-0.938,6.828-1.969,10.219-3.062c3.391-1.109,6.766-2.281,10.078-3.531l-9.812-30.202
		C326.943,418.487,320.928,415.425,315.334,417.253z"/>
	<path style="fill:#602B2B;" d="M118.067,44.811c-2.898,2.094-5.719,4.25-8.484,6.469l18.663,25.687
		c3.461,4.766,10.133,5.828,14.898,2.359s5.82-10.141,2.359-14.906l-18.664-25.687C123.879,40.686,120.957,42.702,118.067,44.811z"
		/>
	<path style="fill:#602B2B;" d="M368.847,389.972c-4.766,3.469-5.828,10.141-2.359,14.906l18.656,25.687
		c2.969-1.953,5.875-3.969,8.781-6.062c2.891-2.109,5.719-4.266,8.484-6.469l-18.672-25.702
		C380.285,387.566,373.613,386.519,368.847,389.972z"/>
	<path style="fill:#602B2B;" d="M66.146,96.716c-2.094,2.906-4.117,5.828-6.07,8.781l25.695,18.655
		c4.765,3.469,11.429,2.406,14.897-2.359c3.461-4.766,2.406-11.421-2.359-14.89L72.615,88.232
		C70.412,90.997,68.256,93.825,66.146,96.716z"/>
	<path style="fill:#602B2B;" d="M411.331,347.505c-3.468,4.766-2.406,11.438,2.344,14.891l25.687,18.671
		c2.219-2.766,4.375-5.593,6.469-8.483c2.109-2.891,4.125-5.812,6.078-8.781l-25.688-18.656
		C421.456,341.677,414.784,342.739,411.331,347.505z"/>
	<path style="fill:#602B2B;" d="M32.819,162.136c-1.109,3.406-2.125,6.812-3.062,10.219l30.202,9.812
		c5.602,1.828,11.617-1.25,13.438-6.843c1.82-5.609-1.25-11.625-6.844-13.438l-30.202-9.812
		C35.1,155.386,33.921,158.745,32.819,162.136z"/>
	<path style="fill:#602B2B;" d="M438.58,293.975c-1.812,5.609,1.25,11.625,6.859,13.453l30.202,9.812
		c1.25-3.312,2.422-6.671,3.531-10.077c1.094-3.391,2.125-6.797,3.062-10.219l-30.202-9.812
		C446.424,285.319,440.408,288.382,438.58,293.975z"/>
	<path style="fill:#602B2B;" d="M21.336,234.649c0,3.578,0.086,7.141,0.242,10.671h31.757c5.89,0,10.663-4.781,10.663-10.671
		s-4.773-10.656-10.663-10.672H21.578C21.422,227.524,21.336,231.071,21.336,234.649z"/>
	<path style="fill:#602B2B;" d="M447.986,234.649c0,5.891,4.781,10.671,10.656,10.671h31.764c0.172-3.531,0.234-7.093,0.25-10.671
		c0-3.578-0.078-7.125-0.25-10.672h-31.764C452.767,223.977,447.986,228.759,447.986,234.649z"/>
	<path style="fill:#602B2B;" d="M32.819,307.163c1.109,3.406,2.281,6.766,3.531,10.077l30.194-9.812
		c5.602-1.828,8.672-7.844,6.852-13.453c-1.82-5.594-7.836-8.656-13.438-6.844l-30.202,9.812
		C30.694,300.366,31.71,303.772,32.819,307.163z"/>
	<path style="fill:#602B2B;" d="M438.58,175.323c1.828,5.593,7.844,8.671,13.453,6.843l30.202-9.812
		c-0.938-3.406-1.969-6.812-3.062-10.219c-1.109-3.391-2.281-6.75-3.531-10.062l-30.202,9.812
		C439.83,163.698,436.767,169.714,438.58,175.323z"/>
	<path style="fill:#602B2B;" d="M66.146,372.583c2.109,2.891,4.266,5.718,6.469,8.483l25.687-18.671
		c4.773-3.453,5.828-10.125,2.367-14.891c-3.469-4.766-10.133-5.828-14.897-2.359l-25.696,18.657
		C62.029,366.77,64.053,369.692,66.146,372.583z"/>
	<path style="fill:#602B2B;" d="M411.331,121.793c3.453,4.765,10.125,5.828,14.89,2.359l25.688-18.655
		c-1.953-2.953-3.969-5.875-6.078-8.781c-2.094-2.891-4.25-5.718-6.469-8.484l-25.687,18.671
		C408.925,110.356,407.863,117.028,411.331,121.793z"/>
	<path style="fill:#602B2B;" d="M118.067,424.503c2.89,2.094,5.812,4.109,8.765,6.062l18.672-25.687
		c3.461-4.766,2.406-11.438-2.359-14.906c-4.766-3.453-11.438-2.406-14.898,2.359l-18.671,25.702
		C112.348,420.237,115.177,422.393,118.067,424.503z"/>
	<path style="fill:#602B2B;" d="M368.832,79.326c4.781,3.453,11.438,2.406,14.906-2.359L402.41,51.28
		c-2.766-2.219-5.594-4.375-8.484-6.469c-2.891-2.109-5.812-4.125-8.781-6.078L366.489,64.42
		C363.019,69.185,364.082,75.857,368.832,79.326z"/>
	<path style="fill:#602B2B;" d="M183.479,457.83c3.397,1.109,6.812,2.125,10.218,3.062l9.812-30.202
		c1.82-5.609-1.242-11.625-6.844-13.438c-5.602-1.828-11.625,1.25-13.444,6.844l-9.812,30.202
		C176.721,455.549,180.081,456.721,183.479,457.83z"/>
	<path style="fill:#602B2B;" d="M315.334,52.061c5.594,1.812,11.609-1.25,13.438-6.859L338.584,15
		c-3.312-1.234-6.688-2.422-10.078-3.516c-3.391-1.109-6.797-2.125-10.219-3.078l-9.812,30.202
		C306.646,44.218,309.709,50.233,315.334,52.061z"/>
	<path style="fill:#602B2B;" d="M248.453,302.835c-4.163,4.172-4.163,10.922,0,15.093c4.164,4.156,10.922,4.156,15.086,0
		c4.164-4.171,4.164-10.921,0-15.093C259.375,298.679,252.617,298.679,248.453,302.835z"/>
	<path style="fill:#602B2B;" d="M248.453,151.386c-4.163,4.156-4.163,10.921,0,15.078c4.164,4.172,10.922,4.172,15.086,0
		c4.164-4.156,4.164-10.921,0-15.078C259.375,147.215,252.617,147.215,248.453,151.386z"/>
	<path style="fill:#602B2B;" d="M263.531,92.872c4.164-4.171,4.164-10.921,0-15.093c-4.164-4.156-10.922-4.156-15.086,0
		c-4.163,4.172-4.163,10.921,0,15.093C252.609,97.028,259.367,97.028,263.531,92.872z"/>
	<path style="fill:#602B2B;" d="M248.445,376.441c-4.163,4.156-4.163,10.922,0,15.078c4.164,4.172,10.922,4.172,15.086,0
		c4.164-4.156,4.164-10.922,0-15.078C259.367,372.27,252.609,372.27,248.445,376.441z"/>
	<path style="fill:#602B2B;" d="M150.394,118.387c-5.891,0-10.664,4.781-10.664,10.671c0,5.891,4.773,10.672,10.664,10.672
		c5.89,0,10.671-4.781,10.671-10.672C161.065,123.168,156.284,118.403,150.394,118.387z"/>
	<path style="fill:#602B2B;" d="M361.582,329.584c-5.89,0-10.671,4.766-10.671,10.655c0,5.891,4.781,10.672,10.671,10.672
		c5.891,0,10.656-4.781,10.656-10.672C372.238,334.349,367.472,329.584,361.582,329.584z"/>
	<path style="fill:#602B2B;" d="M99.114,227.118c-4.164,4.156-4.164,10.906,0,15.078c4.172,4.171,10.922,4.171,15.086,0
		c4.164-4.172,4.164-10.922,0-15.078C110.036,222.946,103.286,222.946,99.114,227.118z"/>
	<path style="fill:#602B2B;" d="M412.862,227.118c-4.172-4.172-10.921-4.172-15.093,0c-4.156,4.156-4.156,10.906,0,15.078
		c4.172,4.171,10.921,4.171,15.093,0C417.018,238.024,417.018,231.274,412.862,227.118z"/>
	<path style="fill:#602B2B;" d="M150.394,329.584c-5.891,0-10.664,4.766-10.664,10.655c0,5.891,4.773,10.672,10.664,10.672
		c5.89,0,10.671-4.781,10.671-10.672C161.065,334.349,156.284,329.584,150.394,329.584z"/>
	<path style="fill:#602B2B;" d="M361.582,118.403c-5.89,0-10.671,4.766-10.671,10.656c0,5.891,4.781,10.672,10.671,10.672
		c5.891,0,10.656-4.781,10.656-10.672C372.238,123.168,367.472,118.403,361.582,118.403z"/>
	<path style="fill:#602B2B;" d="M287.991,223.993L287.991,223.993h-63.998l0,0c-2.727,0-5.461,1.031-7.539,3.109
		c-4.163,4.172-4.163,10.922,0,15.094c2.078,2.078,4.812,3.125,7.539,3.125l0,0h63.998l0,0c2.734,0,5.469-1.047,7.547-3.125
		c4.171-4.172,4.171-10.922,0-15.094C293.46,225.024,290.725,223.993,287.991,223.993z"/>
	<path style="fill:#602B2B;" d="M340.881,234.649c0-29.452-38.016-53.327-84.889-53.327c-46.881,0-84.88,23.875-84.88,53.327
		s37.999,53.342,84.88,53.342C302.865,287.991,340.881,264.101,340.881,234.649z M304.678,254.304
		c-12.499,7.844-30.248,12.344-48.686,12.344c-18.437,0-36.179-4.5-48.67-12.344c-9.461-5.953-14.883-13.108-14.883-19.655
		s5.422-13.703,14.883-19.64c12.491-7.859,30.233-12.359,48.67-12.359c18.438,0,36.187,4.5,48.686,12.359
		c9.438,5.937,14.875,13.093,14.875,19.64S314.115,248.352,304.678,254.304z"/>
	<path style="fill:#602B2B;" d="M331.724,300.663l59.123,24.483l24.483-59.123l-59.123-24.499L331.724,300.663z M367.769,269.398
		l19.703,8.171l-8.172,19.703l-19.702-8.156L367.769,269.398z"/>
	<path style="fill:#602B2B;" d="M165.503,369.505l59.123,24.499l24.491-59.123l-59.123-24.499L165.503,369.505z M201.533,338.256
		l19.71,8.171l-8.163,19.703l-19.703-8.172L201.533,338.256z"/>
	<path style="fill:#602B2B;" d="M346.489,99.794l-59.123-24.483l-24.491,59.123l59.115,24.499L346.489,99.794z M310.459,131.058
		l-19.718-8.171l8.155-19.703l19.719,8.156L310.459,131.058z"/>
	<path style="fill:#602B2B;" d="M262.875,334.881l24.491,59.123l59.123-24.499l-24.499-59.123L262.875,334.881z M298.896,366.13
		l-8.155-19.703l19.718-8.171l8.156,19.702L298.896,366.13z"/>
	<path style="fill:#602B2B;" d="M249.117,134.433L224.626,75.31l-59.123,24.483l24.491,59.139L249.117,134.433z M213.08,103.184
		l8.163,19.703l-19.71,8.171l-8.156-19.718L213.08,103.184z"/>
	<path style="fill:#602B2B;" d="M180.268,168.651l-59.132-24.483l-24.491,59.123l59.131,24.483L180.268,168.651z M144.23,199.9
		l-19.711-8.156l8.164-19.718l19.71,8.171L144.23,199.9z"/>
	<path style="fill:#602B2B;" d="M356.208,227.774l59.123-24.483l-24.483-59.139l-59.123,24.499L356.208,227.774z M379.301,172.026
		l8.172,19.718L367.77,199.9l-8.171-19.703L379.301,172.026z"/>
	<path style="fill:#602B2B;" d="M155.776,241.54l-59.131,24.483l24.499,59.123l59.124-24.483L155.776,241.54z M132.683,297.272
		l-8.164-19.703l19.711-8.171l8.163,19.718L132.683,297.272z"/>
</g>
<g>
</g>
<g>
</g>
<g>
</g>
<g>
</g>
<g>
</g>
<g>
</g>
<g>
</g>
<g>
</g>
<g>
</g>
<g>
</g>
<g>
</g>
<g>
</g>
<g>
</g>
<g>
</g>
<g>
</g>
</svg>
